<?xml version="1.0" encoding="UTF-8" standalone="no"?><!DOCTYPE svg PUBLIC "-//W3C//DTD SVG 1.1//EN" "http://www.w3.org/Graphics/SVG/1.1/DTD/svg11.dtd"><svg width="100%" height="100%" viewBox="0 0 591 591" version="1.1" xmlns="http://www.w3.org/2000/svg" xmlns:xlink="http://www.w3.org/1999/xlink" xml:space="preserve" xmlns:serif="http://www.serif.com/" style="fill-rule:evenodd;clip-rule:evenodd;stroke-linejoin:round;stroke-miterlimit:2;"><g><path d="M531.496,124.739l-332.081,-0l49.812,216.667l232.457,-0l49.812,-216.667Z"/><path d="M140.17,167.619l43.867,210.067c2.299,11.008 12.679,18.274 23.644,16.893c0.881,0.111 1.78,0.168 2.692,0.168l281.102,0c11.833,0 21.44,-9.607 21.44,-21.44c-0,-11.833 -9.607,-21.44 -21.44,-21.44l-269.024,0l-43.868,-210.067c-2.323,-11.128 -12.907,-18.432 -24.006,-16.845c-0.998,-0.142 -2.018,-0.216 -3.054,-0.216l-71.028,-0c-11.833,-0 -21.44,9.607 -21.44,21.44c0,11.833 9.607,21.44 21.44,21.44l59.675,-0Z"/><circle cx="219.235" cy="435.51" r="30.302"/><circle cx="482.613" cy="435.51" r="30.302"/></g></svg>