<?xml version="1.0" encoding="UTF-8" standalone="no"?>
<!DOCTYPE svg PUBLIC "-//W3C//DTD SVG 1.1//EN" "http://www.w3.org/Graphics/SVG/1.1/DTD/svg11.dtd">
<svg width="100%" height="100%" viewBox="0 0 591 591" version="1.1" xmlns="http://www.w3.org/2000/svg" xmlns:xlink="http://www.w3.org/1999/xlink" xml:space="preserve" xmlns:serif="http://www.serif.com/" style="fill-rule:evenodd;clip-rule:evenodd;stroke-linejoin:round;stroke-miterlimit:2;">
    <g transform="matrix(1.25373,0,0,1.25373,-120.659,-74.9207)">
        <g transform="matrix(0.733371,0,0,1,82.0305,39.926)">
            <path d="M207.491,136.427C207.491,126.989 197.042,119.326 184.173,119.326L106.923,119.326C94.053,119.326 83.604,126.989 83.604,136.427C83.604,145.865 94.053,153.528 106.923,153.528L184.173,153.528C197.042,153.528 207.491,145.865 207.491,136.427Z"/>
        </g>
        <g transform="matrix(1.21217,-1.34466e-17,1.2778e-17,-1.25624,-115.526,561.22)">
            <path d="M524.428,319.977L305.916,319.977L338.693,182.41L491.651,182.41L524.428,319.977Z"/>
        </g>
        <g transform="matrix(0.361792,1.73252,-0.978884,0.204415,321.745,-13.1178)">
            <path d="M207.491,136.427C207.491,126.989 203.162,119.326 197.829,119.326L93.267,119.326C87.934,119.326 83.604,126.989 83.604,136.427C83.604,145.865 87.934,153.528 93.267,153.528L197.829,153.528C203.162,153.528 207.491,145.865 207.491,136.427Z"/>
        </g>
        <g transform="matrix(2.08589,0,0,1,72.5475,221.088)">
            <path d="M207.491,136.427C207.491,126.989 203.817,119.326 199.293,119.326L91.803,119.326C87.278,119.326 83.604,126.989 83.604,136.427C83.604,145.865 87.278,153.528 91.803,153.528L199.293,153.528C203.817,153.528 207.491,145.865 207.491,136.427Z"/>
        </g>
        <g transform="matrix(0.766265,0,0,0.766265,108.328,57.9855)">
            <circle cx="212.431" cy="455.644" r="31.542"/>
        </g>
        <g transform="matrix(0.766265,0,0,0.766265,318.403,57.9855)">
            <circle cx="212.431" cy="455.644" r="31.542"/>
        </g>
    </g>
</svg>
