<?xml version="1.0" encoding="UTF-8" standalone="no"?>
<!DOCTYPE svg PUBLIC "-//W3C//DTD SVG 1.1//EN" "http://www.w3.org/Graphics/SVG/1.1/DTD/svg11.dtd">
<svg width="100%" height="100%" viewBox="0 0 591 591" version="1.1" xmlns="http://www.w3.org/2000/svg" xmlns:xlink="http://www.w3.org/1999/xlink" xml:space="preserve" xmlns:serif="http://www.serif.com/" style="fill-rule:evenodd;clip-rule:evenodd;stroke-linecap:round;stroke-linejoin:round;stroke-miterlimit:1.5;">
    <path d="M294.655,211.395c34.849,-66.399 104.547,-66.399 139.396,-33.199c34.85,33.199 34.85,99.598 -0,165.996c-24.395,49.799 -87.122,99.598 -139.396,132.798c-52.273,-33.2 -115,-82.999 -139.395,-132.798c-34.848,-66.398 -34.848,-132.797 0,-165.996c34.849,-33.2 104.547,-33.2 139.395,33.199Z" style="fill:none;stroke:#fff;stroke-width:9.17px;"/>
    <path d="M128.547,189.893c-23.558,-46.468 -11.485,-102.244 29.653,-128.818c-0.088,24.574 7.086,56.444 23.021,86.833c-13.882,3.772 -26.516,10.748 -36.494,20.253c-6.533,6.224 -11.927,13.533 -16.18,21.732Z" style="fill:#fff;stroke:#fff;stroke-width:9.17px;"/>
    <path d="M408.091,147.908c15.935,-30.389 23.109,-62.259 23.021,-86.833c41.138,26.574 53.211,82.35 29.652,128.818c-4.252,-8.199 -9.647,-15.508 -16.18,-21.732c-9.978,-9.505 -22.612,-16.481 -36.493,-20.253Z" style="fill:#fff;stroke:#fff;stroke-width:9.17px;"/>
    <path d="M350.847,437.097c-10.725,20.211 6.652,24.708 9.795,26.753c22.518,14.649 48.574,3.407 52.111,2.224c18.103,-6.055 28.25,-31.3 59.418,-20.971c6.226,2.063 17.135,9.773 16.069,26.962c-0.369,5.95 2.416,30.594 -33.341,37.677" style="fill:none;stroke:#fff;stroke-width:9.06px;"/>
    <path d="M415.429,520.318l34.182,-30.311l10.576,39.47l-44.758,-9.159Z" style="fill:#fff;stroke:#fff;stroke-width:9.06px;"/>
</svg>
