<?xml version="1.0" encoding="UTF-8" standalone="no"?><!DOCTYPE svg PUBLIC "-//W3C//DTD SVG 1.1//EN" "http://www.w3.org/Graphics/SVG/1.1/DTD/svg11.dtd"><svg width="100%" height="100%" viewBox="0 0 591 591" version="1.1" xmlns="http://www.w3.org/2000/svg" xmlns:xlink="http://www.w3.org/1999/xlink" xml:space="preserve" xmlns:serif="http://www.serif.com/" style="fill-rule:evenodd;clip-rule:evenodd;stroke-linejoin:round;stroke-miterlimit:2;"><path d="M321.003,379.929l138.468,138.468c16.261,16.261 42.665,16.261 58.926,-0c16.261,-16.261 16.261,-42.665 -0,-58.926l-138.468,-138.468c15.626,-25.926 24.619,-56.298 24.619,-88.754c0,-95.094 -77.204,-172.298 -172.299,-172.298c-95.094,-0 -172.298,77.204 -172.298,172.298c-0,95.095 77.204,172.299 172.298,172.299c32.456,0 62.828,-8.993 88.754,-24.619Zm-25.105,-85.546c15.659,-16.036 25.317,-37.966 25.317,-62.134c-0,-49.101 -39.864,-88.965 -88.966,-88.965c-49.101,0 -88.965,39.864 -88.965,88.965c0,49.102 39.864,88.966 88.965,88.966c24.168,-0 46.098,-9.658 62.134,-25.317c0.245,-0.257 0.494,-0.513 0.748,-0.767c0.254,-0.254 0.51,-0.503 0.767,-0.748Z"/></svg>